<?xml version="1.0" encoding="UTF-8" standalone="no"?>
<!-- Created with Inkscape (http://www.inkscape.org/) -->

<svg
   width="210mm"
   height="297mm"
   viewBox="0 0 210 297"
   version="1.1"
   id="svg5"
   sodipodi:docname="cat02.svg"
   inkscape:version="1.1 (c68e22c387, 2021-05-23)"
   xmlns:inkscape="http://www.inkscape.org/namespaces/inkscape"
   xmlns:sodipodi="http://sodipodi.sourceforge.net/DTD/sodipodi-0.dtd"
   xmlns="http://www.w3.org/2000/svg"
   xmlns:svg="http://www.w3.org/2000/svg">
  <sodipodi:namedview
     id="namedview7"
     pagecolor="#ffffff"
     bordercolor="#666666"
     borderopacity="1.0"
     inkscape:pageshadow="2"
     inkscape:pageopacity="0.0"
     inkscape:pagecheckerboard="0"
     inkscape:document-units="mm"
     showgrid="false"
     inkscape:snap-global="false"
     inkscape:zoom="1.3504346"
     inkscape:cx="269.91312"
     inkscape:cy="637.9428"
     inkscape:window-width="1920"
     inkscape:window-height="938"
     inkscape:window-x="0"
     inkscape:window-y="27"
     inkscape:window-maximized="1"
     inkscape:current-layer="layer1" />
  <defs
     id="defs2" />
  <g
     inkscape:label="Layer 1"
     inkscape:groupmode="layer"
     id="layer1">
    <path
       style="fill:#ff5555;stroke:none;stroke-width:0.264583px;stroke-linecap:butt;stroke-linejoin:miter;stroke-opacity:1;paint-order:markers stroke fill"
       d="m 118.247,224.77714 c -12.27045,2.59415 -51.548022,7.26213 -67.064746,-13.33151 -11.772451,-15.62429 -13.415823,-55.11152 6.144144,-60.80893 15.285618,-4.45238 32.565414,19.02669 29.280061,34.30083 -0.533534,2.48049 -1.349833,5.09628 -2.503322,7.39935 -2.130996,3.81214 -5.83629,7.93612 -9.987748,8.39861 -5.057304,0.49562 -10.696421,-2.94399 -11.239824,-7.81892 -0.456567,-3.01687 1.241133,-5.42007 3.955594,-5.96178 4.119646,0.855 4.08411,-1.77545 1.031128,-3.6229 -3.100522,-1.05118 -6.570778,-0.82214 -9.220871,2.85122 -3.155608,4.37407 -0.838824,12.20502 3.109919,15.87895 4.94811,4.60374 14.015581,5.34071 20.126642,2.454 6.780702,-3.20304 10.638254,-12.11847 12.080777,-18.97871 2.983142,-14.18699 -1.816841,-28.68172 -13.012579,-39.83332 -7.489383,-7.45986 -24.111569,-7.96378 -32.791641,-1.30625 -15.327753,11.75624 -17.841678,37.88091 -12.782876,56.52381 3.140797,11.5746 11.552377,22.41335 21.827425,29.53542 9.865361,7.22834 19.939973,7.54052 30.171867,8.06729 20.7191,1.0309 51.11453,0.30758 60.73294,-4.72542 0.55104,-6.04494 -23.91816,-10.27727 -29.85689,-9.02174 z"
       id="path3211"
       sodipodi:nodetypes="sssscccccsaassascccs" />
    <path
       style="fill:#ff5555;stroke:none;stroke-width:0.264583px;stroke-linecap:butt;stroke-linejoin:miter;stroke-opacity:1"
       d="M 117.65695,131.36986 C 108.61106,117.01336 73.352696,129.0671 70.437204,112.35073 66.85339,91.802455 96.675057,74.735892 117.13994,70.703004 c 22.04829,-4.344923 48.03256,6.197618 63.5778,22.425706 14.1029,14.72239 17.11238,38.12567 17.84816,58.49965 0.92838,25.70684 3.60906,60.03513 -17.13688,75.244 -18.73913,13.73767 -54.27755,11.89074 -69.47353,-5.68656 -19.619434,-22.6939 21.69365,-64.43517 5.70146,-89.81597 z"
       id="path42"
       sodipodi:nodetypes="aaaaaaaa" />
    <path
       style="fill:#ff5555;stroke:none;stroke-width:0.264583px;stroke-linecap:butt;stroke-linejoin:miter;stroke-opacity:1"
       d="m 112.6141,103.37852 c 15.69632,-10.123657 7.70363,-38.575486 -0.61938,-44.891237 -4.006,-4.610983 -8.90603,-4.287885 -11.36873,-9.168946 -1.942109,-3.849258 -3.387684,-6.119358 1.43107,-24.630232 0,0 -10.651669,5.704984 -15.892479,12.808772 -5.610043,7.604278 -1.445864,11.532507 -7.062129,12.909316 0,0 -7.278957,2.209508 -21.023151,-1.271037 -3.525757,-0.892854 -3.020388,-4.617779 -8.290096,-10.353239 -3.115055,-3.39037 -10.626097,-5.827175 -15.738086,-13.283559 -3.87715,11.720136 14.493654,25.589429 5.631941,34.183841 -9.813376,8.10768 -13.979715,35.498046 -5.474439,44.584211 8.505277,9.08616 20.018262,12.90244 36.70331,11.18754 17.484444,-1.79707 27.306481,-2.79064 41.702169,-12.07543 z"
       id="path1502"
       sodipodi:nodetypes="scscssssccsss" />
    <path
       style="fill:none;stroke:#ff5555;stroke-width:1.565;stroke-linecap:round;stroke-linejoin:miter;stroke-miterlimit:4;stroke-dasharray:none;stroke-opacity:1"
       d="m 34.653642,28.388063 c 1.037071,13.272171 3.976537,17.490996 1.701664,38.912586"
       id="path9749"
       sodipodi:nodetypes="cc" />
    <path
       style="fill:none;stroke:#ff5555;stroke-width:1.565;stroke-linecap:round;stroke-linejoin:miter;stroke-miterlimit:4;stroke-dasharray:none;stroke-opacity:1"
       d="m 100.65623,26.61032 c -1.659908,10.689974 1.3854,23.492108 8.49998,30.005609"
       id="path9784"
       sodipodi:nodetypes="cc" />
    <path
       style="fill:none;stroke:#ff5555;stroke-width:1.5651;stroke-linecap:round;stroke-linejoin:miter;stroke-miterlimit:4;stroke-dasharray:none;stroke-opacity:1"
       d="M 19.586245,68.982321 C 59.1159,80.038451 66.215686,81.138747 66.215686,81.138747 l -1.986441,3.91266 -45.92745,-5.574378"
       id="path11643" />
    <path
       style="fill:none;stroke:#ff5555;stroke-width:1.5651;stroke-linecap:round;stroke-linejoin:miter;stroke-miterlimit:4;stroke-dasharray:none;stroke-opacity:1"
       d="M 9.9191138,85.609285 C 50.963028,85.131027 58.086363,84.195233 58.086363,84.195233 l -0.808932,4.312829 -45.646811,7.534797"
       id="path11643-3" />
    <path
       style="fill:none;stroke:#ff5555;stroke-width:1.5651;stroke-linecap:round;stroke-linejoin:miter;stroke-miterlimit:4;stroke-dasharray:none;stroke-opacity:1"
       d="M 17.972566,107.10849 C 52.892574,85.534788 58.513347,81.059911 58.513347,81.059911 l 1.530774,4.112371 -26.107405,22.229718 -9.117745,7.76351"
       id="path11643-3-6"
       sodipodi:nodetypes="ccccc" />
    <path
       style="fill:none;stroke:#ff5555;stroke-width:1.5651;stroke-linecap:round;stroke-linejoin:miter;stroke-miterlimit:4;stroke-dasharray:none;stroke-opacity:1"
       d="M 131.4329,63.913 C 93.311533,79.13119 87.002342,82.568011 87.002342,82.568011 l -0.79749,-4.314958 29.554508,-17.386439 10.32161,-6.07204"
       id="path11643-3-6-7"
       sodipodi:nodetypes="ccccc" />
  </g>
</svg>
