<?xml version="1.0" encoding="UTF-8" standalone="no"?>
<!-- Created with Inkscape (http://www.inkscape.org/) -->

<svg
   width="210mm"
   height="297mm"
   viewBox="0 0 210 297"
   version="1.1"
   id="svg14450"
   inkscape:version="1.1 (c68e22c387, 2021-05-23)"
   sodipodi:docname="cat03.svg"
   xmlns:inkscape="http://www.inkscape.org/namespaces/inkscape"
   xmlns:sodipodi="http://sodipodi.sourceforge.net/DTD/sodipodi-0.dtd"
   xmlns="http://www.w3.org/2000/svg"
   xmlns:svg="http://www.w3.org/2000/svg">
  <sodipodi:namedview
     id="namedview14452"
     pagecolor="#ffffff"
     bordercolor="#666666"
     borderopacity="1.0"
     inkscape:pageshadow="2"
     inkscape:pageopacity="0.0"
     inkscape:pagecheckerboard="0"
     inkscape:document-units="mm"
     showgrid="false"
     inkscape:zoom="0.68239338"
     inkscape:cx="107.70913"
     inkscape:cy="561.99256"
     inkscape:window-width="1920"
     inkscape:window-height="938"
     inkscape:window-x="0"
     inkscape:window-y="27"
     inkscape:window-maximized="1"
     inkscape:current-layer="layer1" />
  <defs
     id="defs14447" />
  <g
     inkscape:label="Layer 1"
     inkscape:groupmode="layer"
     id="layer1">
    <path
       style="fill:#c83737;stroke:#f4d7d7;stroke-width:4.5;stroke-linecap:butt;stroke-linejoin:miter;stroke-miterlimit:4;stroke-dasharray:none;stroke-opacity:1"
       d="m 150.54068,102.74838 c 10.12257,-17.656609 30.54115,-16.469199 43.91588,-23.166886 -1.104,18.63705 -12.39822,24.984496 2.39494,50.772796 21.97423,48.88011 -16.88002,78.07132 -32.45009,86.70787 -15.57008,8.63655 -64.834305,14.40674 -107.659192,2.5881 -42.824887,-11.81864 -58.9649529,-53.99681 -33.394908,-95.94309 7.335292,-12.31874 8.190724,-11.00094 -6.224701,-51.267219 21.592207,5.268038 39.820728,2.373726 55.437346,26.8073 23.496398,-4.765456 43.810885,-11.623875 77.980725,3.501129 z"
       id="path14487"
       sodipodi:nodetypes="ccczzcccc" />
    <path
       sodipodi:type="spiral"
       style="fill:none;fill-rule:evenodd;stroke:#f4d7d7;stroke-width:13.0864;stroke-miterlimit:4;stroke-dasharray:none"
       id="path18521"
       sodipodi:cx="-78.039268"
       sodipodi:cy="554.495"
       sodipodi:expansion="1"
       sodipodi:revolution="3"
       sodipodi:radius="123.17582"
       sodipodi:argument="-18.326916"
       sodipodi:t0="0"
       d="m -78.039268,554.495 c 5.351391,3.08279 -1.515354,8.7345 -5.123803,8.89436 -9.778672,0.4332 -14.441209,-10.9872 -12.664927,-19.14197 3.177352,-14.58697 19.969294,-20.71236 33.160136,-16.43549 19.35809,6.27648 27.126368,29.0577 20.206053,47.1783 -9.223693,24.15192 -38.181805,33.59867 -61.196471,23.97662 -28.96161,-12.10837 -40.10059,-47.32243 -27.74718,-75.21464 14.96164,-33.7812 56.472257,-46.61957 89.232806,-31.51774 38.6071731,17.79698 53.149244,65.6278 35.2883039,103.25097 -20.6211619,43.43744 -74.7871719,59.68606 -117.2691399,39.05887 -48.27071,-23.43792 -66.22786,-83.94923 -42.82943,-131.28731 26.24951,-53.10616 93.113252,-72.77329 145.305474,-46.59999 57.943259,29.05733 79.321454,102.27875 50.370555,159.32364"
       transform="matrix(-0.16723316,0.16400172,-0.16555867,-0.16566046,119.14092,275.61831)" />
    <path
       sodipodi:type="spiral"
       style="fill:none;fill-rule:evenodd;stroke:#f4d7d7;stroke-width:13.0864;stroke-miterlimit:4;stroke-dasharray:none"
       id="path18521-3"
       sodipodi:cx="-78.039268"
       sodipodi:cy="554.495"
       sodipodi:expansion="1"
       sodipodi:revolution="3"
       sodipodi:radius="123.17582"
       sodipodi:argument="-18.326916"
       sodipodi:t0="0"
       transform="matrix(-0.16723316,-0.16400172,-0.16555867,0.16566046,133.25633,22.319669)"
       d="m -78.039268,554.495 c 5.351391,3.08279 -1.515354,8.7345 -5.123803,8.89436 -9.778672,0.4332 -14.441209,-10.9872 -12.664927,-19.14197 3.177352,-14.58697 19.969294,-20.71236 33.160136,-16.43549 19.35809,6.27648 27.126368,29.0577 20.206053,47.1783 -9.223693,24.15192 -38.181805,33.59867 -61.196471,23.97662 -28.96161,-12.10837 -40.10059,-47.32243 -27.74718,-75.21464 14.96164,-33.7812 56.472257,-46.61957 89.232806,-31.51774 38.6071731,17.79698 53.149244,65.6278 35.2883039,103.25097 -20.6211619,43.43744 -74.7871719,59.68606 -117.2691399,39.05887 -48.27071,-23.43792 -66.22786,-83.94923 -42.82943,-131.28731 26.24951,-53.10616 93.113252,-72.77329 145.305474,-46.59999 57.943259,29.05733 79.321454,102.27875 50.370555,159.32364" />
    <path
       sodipodi:type="spiral"
       style="fill:none;fill-rule:evenodd;stroke:#f4d7d7;stroke-width:20.0034;stroke-miterlimit:4;stroke-dasharray:none"
       id="path18521-3-6"
       sodipodi:cx="-78.039268"
       sodipodi:cy="554.495"
       sodipodi:expansion="1"
       sodipodi:revolution="3"
       sodipodi:radius="123.17582"
       sodipodi:argument="-18.326916"
       sodipodi:t0="0"
       transform="matrix(-0.10748555,0.10920745,-0.10640931,-0.11031198,144.22784,203.34064)"
       d="m -78.039268,554.495 c 5.351391,3.08279 -1.515354,8.7345 -5.123803,8.89436 -9.778672,0.4332 -14.441209,-10.9872 -12.664927,-19.14197 3.177352,-14.58697 19.969294,-20.71236 33.160136,-16.43549 19.35809,6.27648 27.126368,29.0577 20.206053,47.1783 -9.223693,24.15192 -38.181805,33.59867 -61.196471,23.97662 -28.96161,-12.10837 -40.10059,-47.32243 -27.74718,-75.21464 14.96164,-33.7812 56.472257,-46.61957 89.232806,-31.51774 38.6071731,17.79698 53.149244,65.6278 35.2883039,103.25097 -20.6211619,43.43744 -74.7871719,59.68606 -117.2691399,39.05887 -48.27071,-23.43792 -66.22786,-83.94923 -42.82943,-131.28731 26.24951,-53.10616 93.113252,-72.77329 145.305474,-46.59999 57.943259,29.05733 79.321454,102.27875 50.370555,159.32364" />
    <path
       sodipodi:type="spiral"
       style="fill:none;fill-rule:evenodd;stroke:#f4d7d7;stroke-width:13.0894;stroke-miterlimit:4;stroke-dasharray:none"
       id="path18521-3-6-2"
       sodipodi:cx="-78.039268"
       sodipodi:cy="554.495"
       sodipodi:expansion="1"
       sodipodi:revolution="3"
       sodipodi:radius="123.17582"
       sodipodi:argument="-18.326916"
       sodipodi:t0="0"
       transform="matrix(-0.21601171,0.08860095,0.0954675,0.214677,25.988817,89.487409)"
       d="m -78.039268,554.495 c 5.351391,3.08279 -1.515354,8.7345 -5.123803,8.89436 -9.778672,0.4332 -14.441209,-10.9872 -12.664927,-19.14197 3.177352,-14.58697 19.969294,-20.71236 33.160136,-16.43549 19.35809,6.27648 27.126368,29.0577 20.206053,47.1783 -9.223693,24.15192 -38.181805,33.59867 -61.196471,23.97662 -28.96161,-12.10837 -40.10059,-47.32243 -27.74718,-75.21464 14.96164,-33.7812 56.472257,-46.61957 89.232806,-31.51774 38.6071731,17.79698 53.149244,65.6278 35.2883039,103.25097 -20.6211619,43.43744 -74.7871719,59.68606 -117.2691399,39.05887 -48.27071,-23.43792 -66.22786,-83.94923 -42.82943,-131.28731 26.24951,-53.10616 93.113252,-72.77329 145.305474,-46.59999 57.943259,29.05733 79.321454,102.27875 50.370555,159.32364" />
    <path
       sodipodi:type="spiral"
       style="fill:none;fill-rule:evenodd;stroke:#f4d7d7;stroke-width:17.8065;stroke-miterlimit:4;stroke-dasharray:none"
       id="path18521-3-6-2-9"
       sodipodi:cx="-78.039268"
       sodipodi:cy="554.495"
       sodipodi:expansion="1"
       sodipodi:revolution="3"
       sodipodi:radius="123.17582"
       sodipodi:argument="-18.326916"
       sodipodi:t0="0"
       transform="matrix(0.16937128,0.01002283,0.01124125,-0.1742653,149.83357,292.93358)"
       d="m -78.039268,554.495 c 5.351391,3.08279 -1.515354,8.7345 -5.123803,8.89436 -9.778672,0.4332 -14.441209,-10.9872 -12.664927,-19.14197 3.177352,-14.58697 19.969294,-20.71236 33.160136,-16.43549 19.35809,6.27648 27.126368,29.0577 20.206053,47.1783 -9.223693,24.15192 -38.181805,33.59867 -61.196471,23.97662 -28.96161,-12.10837 -40.10059,-47.32243 -27.74718,-75.21464 14.96164,-33.7812 56.472257,-46.61957 89.232806,-31.51774 38.6071731,17.79698 53.149244,65.6278 35.2883039,103.25097 -20.6211619,43.43744 -74.7871719,59.68606 -117.2691399,39.05887 -48.27071,-23.43792 -66.22786,-83.94923 -42.82943,-131.28731 26.24951,-53.10616 93.113252,-72.77329 145.305474,-46.59999 57.943259,29.05733 79.321454,102.27875 50.370555,159.32364" />
    <path
       sodipodi:type="spiral"
       style="fill:none;fill-rule:evenodd;stroke:#f4d7d7;stroke-width:23.8515;stroke-miterlimit:4;stroke-dasharray:none"
       id="path18521-3-6-2-9-1"
       sodipodi:cx="-78.039268"
       sodipodi:cy="554.495"
       sodipodi:expansion="1"
       sodipodi:revolution="3"
       sodipodi:radius="123.17582"
       sodipodi:argument="-18.326916"
       sodipodi:t0="0"
       transform="matrix(-0.05433396,0.1134661,-0.11892149,-0.05557699,231.91238,154.14524)"
       d="m -78.039268,554.495 c 5.351391,3.08279 -1.515354,8.7345 -5.123803,8.89436 -9.778672,0.4332 -14.441209,-10.9872 -12.664927,-19.14197 3.177352,-14.58697 19.969294,-20.71236 33.160136,-16.43549 19.35809,6.27648 27.126368,29.0577 20.206053,47.1783 -9.223693,24.15192 -38.181805,33.59867 -61.196471,23.97662 -28.96161,-12.10837 -40.10059,-47.32243 -27.74718,-75.21464 14.96164,-33.7812 56.472257,-46.61957 89.232806,-31.51774 38.6071731,17.79698 53.149244,65.6278 35.2883039,103.25097 -20.6211619,43.43744 -74.7871719,59.68606 -117.2691399,39.05887 -48.27071,-23.43792 -66.22786,-83.94923 -42.82943,-131.28731 26.24951,-53.10616 93.113252,-72.77329 145.305474,-46.59999 57.943259,29.05733 79.321454,102.27875 50.370555,159.32364" />
    <path
       sodipodi:type="spiral"
       style="fill:none;fill-rule:evenodd;stroke:#f4d7d7;stroke-width:23.8515;stroke-miterlimit:4;stroke-dasharray:none"
       id="path18521-3-6-2-9-1-2"
       sodipodi:cx="-78.039268"
       sodipodi:cy="554.495"
       sodipodi:expansion="1"
       sodipodi:revolution="3"
       sodipodi:radius="123.17582"
       sodipodi:argument="-18.326916"
       sodipodi:t0="0"
       transform="matrix(-0.09717696,-0.08065288,-0.0846584,0.09966695,117.28076,103.73488)"
       d="m -78.039268,554.495 c 5.351391,3.08279 -1.515354,8.7345 -5.123803,8.89436 -9.778672,0.4332 -14.441209,-10.9872 -12.664927,-19.14197 3.177352,-14.58697 19.969294,-20.71236 33.160136,-16.43549 19.35809,6.27648 27.126368,29.0577 20.206053,47.1783 -9.223693,24.15192 -38.181805,33.59867 -61.196471,23.97662 -28.96161,-12.10837 -40.10059,-47.32243 -27.74718,-75.21464 14.96164,-33.7812 56.472257,-46.61957 89.232806,-31.51774 38.6071731,17.79698 53.149244,65.6278 35.2883039,103.25097 -20.6211619,43.43744 -74.7871719,59.68606 -117.2691399,39.05887 -48.27071,-23.43792 -66.22786,-83.94923 -42.82943,-131.28731 26.24951,-53.10616 93.113252,-72.77329 145.305474,-46.59999 57.943259,29.05733 79.321454,102.27875 50.370555,159.32364" />
    <path
       sodipodi:type="spiral"
       style="fill:none;fill-rule:evenodd;stroke:#f4d7d7;stroke-width:28.7293;stroke-miterlimit:4;stroke-dasharray:none"
       id="path18521-3-6-2-9-1-2-7"
       sodipodi:cx="-78.039268"
       sodipodi:cy="554.495"
       sodipodi:expansion="1"
       sodipodi:revolution="3"
       sodipodi:radius="123.17582"
       sodipodi:argument="-18.326916"
       sodipodi:t0="0"
       transform="matrix(0.10493745,0.00534098,-0.00756098,0.10807877,134.08768,116.28534)"
       d="m -78.039268,554.495 c 5.351391,3.08279 -1.515354,8.7345 -5.123803,8.89436 -9.778672,0.4332 -14.441209,-10.9872 -12.664927,-19.14197 3.177352,-14.58697 19.969294,-20.71236 33.160136,-16.43549 19.35809,6.27648 27.126368,29.0577 20.206053,47.1783 -9.223693,24.15192 -38.181805,33.59867 -61.196471,23.97662 -28.96161,-12.10837 -40.10059,-47.32243 -27.74718,-75.21464 14.96164,-33.7812 56.472257,-46.61957 89.232806,-31.51774 38.6071731,17.79698 53.149244,65.6278 35.2883039,103.25097 -20.6211619,43.43744 -74.7871719,59.68606 -117.2691399,39.05887 -48.27071,-23.43792 -66.22786,-83.94923 -42.82943,-131.28731 26.24951,-53.10616 93.113252,-72.77329 145.305474,-46.59999 57.943259,29.05733 79.321454,102.27875 50.370555,159.32364" />
    <path
       sodipodi:type="spiral"
       style="fill:none;fill-rule:evenodd;stroke:#ffd5d5;stroke-width:13.0864;stroke-miterlimit:4;stroke-dasharray:none"
       id="path18521-5"
       sodipodi:cx="-78.039268"
       sodipodi:cy="554.495"
       sodipodi:expansion="1"
       sodipodi:revolution="3"
       sodipodi:radius="123.17582"
       sodipodi:argument="-18.326916"
       sodipodi:t0="0"
       transform="matrix(0.22334963,0.07340805,0.07410495,-0.2212492,151.01934,292.7472)"
       d="m -78.039268,554.495 c 5.351391,3.08279 -1.515354,8.7345 -5.123803,8.89436 -9.778672,0.4332 -14.441209,-10.9872 -12.664927,-19.14197 3.177352,-14.58697 19.969294,-20.71236 33.160136,-16.43549 19.35809,6.27648 27.126368,29.0577 20.206053,47.1783 -9.223693,24.15192 -38.181805,33.59867 -61.196471,23.97662 -28.96161,-12.10837 -40.10059,-47.32243 -27.74718,-75.21464 14.96164,-33.7812 56.472257,-46.61957 89.232806,-31.51774 38.6071731,17.79698 53.149244,65.6278 35.2883039,103.25097 -20.6211619,43.43744 -74.7871719,59.68606 -117.2691399,39.05887 -48.27071,-23.43792 -66.22786,-83.94923 -42.82943,-131.28731 26.24951,-53.10616 93.113252,-72.77329 145.305474,-46.59999 57.943259,29.05733 79.321454,102.27875 50.370555,159.32364" />
    <path
       sodipodi:type="spiral"
       style="fill:none;fill-rule:evenodd;stroke:#ffd5d5;stroke-width:13.0864;stroke-miterlimit:4;stroke-dasharray:none"
       id="path18521-5-5"
       sodipodi:cx="-78.039268"
       sodipodi:cy="554.495"
       sodipodi:expansion="1"
       sodipodi:revolution="3"
       sodipodi:radius="123.17582"
       sodipodi:argument="-18.326916"
       sodipodi:t0="0"
       transform="matrix(0.22334963,-0.07340805,0.07410495,0.2212492,111.51917,11.544885)"
       d="m -78.039268,554.495 c 5.351391,3.08279 -1.515354,8.7345 -5.123803,8.89436 -9.778672,0.4332 -14.441209,-10.9872 -12.664927,-19.14197 3.177352,-14.58697 19.969294,-20.71236 33.160136,-16.43549 19.35809,6.27648 27.126368,29.0577 20.206053,47.1783 -9.223693,24.15192 -38.181805,33.59867 -61.196471,23.97662 -28.96161,-12.10837 -40.10059,-47.32243 -27.74718,-75.21464 14.96164,-33.7812 56.472257,-46.61957 89.232806,-31.51774 38.6071731,17.79698 53.149244,65.6278 35.2883039,103.25097 -20.6211619,43.43744 -74.7871719,59.68606 -117.2691399,39.05887 -48.27071,-23.43792 -66.22786,-83.94923 -42.82943,-131.28731 26.24951,-53.10616 93.113252,-72.77329 145.305474,-46.59999 57.943259,29.05733 79.321454,102.27875 50.370555,159.32364" />
  </g>
</svg>
