<?xml version="1.0" encoding="UTF-8" standalone="no"?>
<!-- Created with Inkscape (http://www.inkscape.org/) -->

<svg
   width="210mm"
   height="297mm"
   viewBox="0 0 210 297"
   version="1.1"
   id="svg5"
   sodipodi:docname="cat05.svg"
   inkscape:version="1.1 (c68e22c387, 2021-05-23)"
   xmlns:inkscape="http://www.inkscape.org/namespaces/inkscape"
   xmlns:sodipodi="http://sodipodi.sourceforge.net/DTD/sodipodi-0.dtd"
   xmlns="http://www.w3.org/2000/svg"
   xmlns:svg="http://www.w3.org/2000/svg">
  <sodipodi:namedview
     id="namedview7"
     pagecolor="#ffffff"
     bordercolor="#666666"
     borderopacity="1.0"
     inkscape:pageshadow="2"
     inkscape:pageopacity="0.0"
     inkscape:pagecheckerboard="0"
     inkscape:document-units="mm"
     showgrid="false"
     inkscape:snap-global="false"
     inkscape:zoom="0.63446243"
     inkscape:cx="-11.821031"
     inkscape:cy="479.93385"
     inkscape:window-width="1920"
     inkscape:window-height="938"
     inkscape:window-x="0"
     inkscape:window-y="27"
     inkscape:window-maximized="1"
     inkscape:current-layer="layer1" />
  <defs
     id="defs2" />
  <g
     inkscape:label="Layer 1"
     inkscape:groupmode="layer"
     id="layer1">
    <path
       style="fill:#ff5555;stroke:none;stroke-width:0.264583px;stroke-linecap:butt;stroke-linejoin:miter;stroke-opacity:1"
       d="m 113.70921,123.60764 c -13.787299,-8.95579 -6.7667,-34.125408 0.54405,-39.712571 3.51878,-4.079058 7.82286,-3.793232 9.98604,-8.111212 1.70591,-3.405206 2.97566,-5.413426 -1.25702,-21.788878 0,0 9.35619,5.046855 13.9596,11.331147 4.92774,6.727045 1.27001,10.202112 6.20322,11.420091 0,0 6.39367,1.954618 18.46627,-1.124409 3.09694,-0.789854 2.65305,-4.08507 7.28184,-9.158885 2.7362,-2.999256 7.16072,-2.007169 11.65098,-8.603381 3.4056,10.368096 -10.5579,19.48964 -2.77397,27.092597 8.61985,7.172375 12.27947,31.402981 4.80863,39.440961 -7.47085,8.03797 -17.5836,11.414 -32.23938,9.89693 -15.35795,-1.58976 -23.9854,-2.46871 -36.63026,-10.68239 z"
       id="path1502-2"
       sodipodi:nodetypes="scscssssccsss" />
    <path
       style="fill:none;stroke:#ff5555;stroke-width:1.565;stroke-linecap:round;stroke-linejoin:miter;stroke-miterlimit:4;stroke-dasharray:none;stroke-opacity:1"
       d="m 178.33094,62.648665 c -0.91094,11.741088 0.36411,10.09267 2.36231,29.043057"
       id="path9749-0"
       sodipodi:nodetypes="cc" />
    <path
       style="fill:none;stroke:#ff5555;stroke-width:1.565;stroke-linecap:round;stroke-linejoin:miter;stroke-miterlimit:4;stroke-dasharray:none;stroke-opacity:1"
       d="m 124.21274,55.695446 c 1.45803,9.456774 -1.21691,20.782049 -7.46619,26.544149"
       id="path9784-2"
       sodipodi:nodetypes="cc" />
    <path
       style="fill:none;stroke:#ff5555;stroke-width:1.5651;stroke-linecap:round;stroke-linejoin:miter;stroke-miterlimit:4;stroke-dasharray:none;stroke-opacity:1"
       d="m 195.42282,93.179395 c -34.72197,9.780695 -40.95827,10.754055 -40.95827,10.754055 l 1.74484,3.4613 40.34166,-4.93132"
       id="path11643-37" />
    <path
       style="fill:none;stroke:#ff5555;stroke-width:1.5651;stroke-linecap:round;stroke-linejoin:miter;stroke-miterlimit:4;stroke-dasharray:none;stroke-opacity:1"
       d="m 203.91421,107.88826 c -36.05206,-0.42308 -42.30904,-1.25092 -42.30904,-1.25092 l 0.71055,3.8153 40.09515,6.66558"
       id="path11643-3-5" />
    <path
       style="fill:none;stroke:#ff5555;stroke-width:1.5651;stroke-linecap:round;stroke-linejoin:miter;stroke-miterlimit:4;stroke-dasharray:none;stroke-opacity:1"
       d="m 196.84024,126.90731 c -30.67297,-19.08494 -35.61013,-23.0436 -35.61013,-23.0436 l -1.34459,3.63797 22.93216,19.66528 8.00883,6.86791"
       id="path11643-3-6-9"
       sodipodi:nodetypes="ccccc" />
    <path
       style="fill:none;stroke:#ff5555;stroke-width:1.5651;stroke-linecap:round;stroke-linejoin:miter;stroke-miterlimit:4;stroke-dasharray:none;stroke-opacity:1"
       d="m 97.179193,88.694873 c 33.484967,13.462617 39.026817,16.502967 39.026817,16.502967 l 0.7005,-3.81719 -25.96003,-15.38073 -9.06627,-5.371567"
       id="path11643-3-6-7-2"
       sodipodi:nodetypes="ccccc" />
    <path
       style="fill:#ff5555;fill-opacity:1;stroke:none;stroke-width:1.5651;stroke-linecap:round;stroke-miterlimit:4;stroke-dasharray:none;paint-order:markers stroke fill"
       d="M 69.216023,216.22087 C 46.28341,211.85239 22.444145,198.34475 17.119065,176.78989 c -1.204376,-4.93002 -2.216108,-10.3715 -2.425243,-14.29428 -0.76337,-14.3186 1.988839,-22.64542 7.411334,-29.16175 4.078132,-4.90078 -0.745381,4.9633 3.516978,4.65662 1.788163,-0.12866 2.439248,-0.0125 3.420355,0.61 1.290972,0.81917 2.612898,3.25378 2.626339,4.83697 0.01549,1.82431 0.06558,5.51556 -2.963818,11.73563 -12.363704,33.07327 30.351776,50.30393 47.640086,48.22141 10.701616,-4.30882 16.882364,5.2042 22.883054,-0.2072 6.71841,-6.06118 11.77094,-7.76085 13.48365,-2.86737 3.69843,10.567 3.00906,10.26324 -11.55655,17.24678 -11.02701,5.28694 -7.653752,-5.54044 -20.211415,-4.58504 -5.610176,0.42682 -5.840192,3.66455 -11.727812,3.23952 z"
       id="path34542"
       sodipodi:nodetypes="ccssscscccssscc" />
    <path
       style="fill:#ff5555;fill-opacity:1;stroke:none;stroke-width:0.264583px;stroke-linecap:butt;stroke-linejoin:miter;stroke-opacity:1"
       d="m 165.20128,178.90229 c 2.9393,-6.00361 7.50826,-21.37353 5.05794,-30.8006 -7.95424,-30.60217 -7.44389,-29.62469 -24.62475,-28.5262 -9.71897,0.6214 -18.80372,-15.55273 -30.00154,-19.833916 -11.40965,-4.362172 -24.14523,-6.942466 -36.254279,-5.338999 -17.819554,2.359646 -36.12447,3.067427 -49.521584,21.479155 -11.238225,15.44474 -10.4404,40.51276 -1.522169,57.42347 6.152796,11.6669 20.340067,18.60554 33.179804,21.30694 21.469909,4.51714 49.009548,-6.43549 65.003818,-10.27897 3.38999,-0.81462 8.53529,3.35724 11.8837,4.75384 6.23852,2.60205 20.00766,3.68686 26.79906,-10.18472 z"
       id="path42-9"
       sodipodi:nodetypes="sssaasaasss" />
  </g>
</svg>
