<?xml version="1.0" encoding="UTF-8" standalone="no"?>
<!-- Created with Inkscape (http://www.inkscape.org/) -->

<svg
   width="210mm"
   height="297mm"
   viewBox="0 0 210 297"
   version="1.1"
   id="svg5"
   sodipodi:docname="cat04.svg"
   inkscape:version="1.1 (c68e22c387, 2021-05-23)"
   xmlns:inkscape="http://www.inkscape.org/namespaces/inkscape"
   xmlns:sodipodi="http://sodipodi.sourceforge.net/DTD/sodipodi-0.dtd"
   xmlns="http://www.w3.org/2000/svg"
   xmlns:svg="http://www.w3.org/2000/svg">
  <sodipodi:namedview
     id="namedview7"
     pagecolor="#ffffff"
     bordercolor="#666666"
     borderopacity="1.0"
     inkscape:pageshadow="2"
     inkscape:pageopacity="0.0"
     inkscape:pagecheckerboard="0"
     inkscape:document-units="mm"
     showgrid="false"
     inkscape:snap-global="false"
     inkscape:zoom="0.63446243"
     inkscape:cx="270.30757"
     inkscape:cy="606.02485"
     inkscape:window-width="1920"
     inkscape:window-height="938"
     inkscape:window-x="0"
     inkscape:window-y="27"
     inkscape:window-maximized="1"
     inkscape:current-layer="layer1" />
  <defs
     id="defs2" />
  <g
     inkscape:label="Layer 1"
     inkscape:groupmode="layer"
     id="layer1">
    <path
       style="fill:#ff5555;stroke:none;stroke-width:0.264583px;stroke-linecap:butt;stroke-linejoin:miter;stroke-opacity:1;paint-order:markers stroke fill"
       d="m 90.095308,224.77714 c 12.270452,2.59415 51.548022,7.26213 67.064742,-13.33151 11.77246,-15.62429 13.41583,-55.11152 -6.14414,-60.80893 -15.28562,-4.45238 -32.56541,19.02669 -29.28006,34.30083 0.53353,2.48049 1.34983,5.09628 2.50332,7.39935 2.131,3.81214 5.83629,7.93612 9.98775,8.39861 5.0573,0.49562 10.69642,-2.94399 11.23982,-7.81892 0.45657,-3.01687 -1.24113,-5.42007 -3.95559,-5.96178 -4.11965,0.855 -4.08411,-1.77545 -1.03113,-3.6229 3.10052,-1.05118 6.57078,-0.82214 9.22087,2.85122 3.15561,4.37407 0.83883,12.20502 -3.10992,15.87895 -4.94811,4.60374 -14.01558,5.34071 -20.12664,2.454 -6.7807,-3.20304 -10.63825,-12.11847 -12.08078,-18.97871 -2.98314,-14.18699 1.81685,-28.68172 13.01258,-39.83332 7.48939,-7.45986 24.11157,-7.96378 32.79164,-1.30625 15.32776,11.75624 17.84168,37.88091 12.78288,56.52381 -3.1408,11.5746 -11.55238,22.41335 -21.82742,29.53542 -9.86537,7.22834 -19.93998,7.54052 -30.17187,8.06729 -20.7191,1.0309 -51.114532,0.30758 -60.732942,-4.72542 -0.55104,-6.04494 23.91816,-10.27727 29.85689,-9.02174 z"
       id="path3211"
       sodipodi:nodetypes="sssscccccsaassascccs" />
    <path
       style="fill:#ff5555;stroke:none;stroke-width:0.264583px;stroke-linecap:butt;stroke-linejoin:miter;stroke-opacity:1"
       d="m 90.685358,131.36986 c 9.04589,-14.3565 44.304252,-2.30276 47.219742,-19.01913 3.58382,-20.548275 -26.23785,-37.614838 -46.702732,-41.647726 -22.04829,-4.344923 -48.03256,6.197618 -63.5778,22.425706 -14.1029,14.72239 -17.11238,38.12567 -17.8481595,58.49965 -0.92838,25.70684 -3.60906,60.03513 17.1368795,75.244 18.73913,13.73767 54.27755,11.89074 69.47353,-5.68656 19.619432,-22.6939 -21.69365,-64.43517 -5.70146,-89.81597 z"
       id="path42"
       sodipodi:nodetypes="aaaaaaaa" />
    <path
       style="fill:#ff5555;stroke:none;stroke-width:0.264583px;stroke-linecap:butt;stroke-linejoin:miter;stroke-opacity:1"
       d="m 95.728208,103.37852 c -15.69632,-10.123657 -7.70363,-38.575486 0.61938,-44.891237 4.006002,-4.610983 8.906032,-4.287885 11.368732,-9.168946 1.94211,-3.849258 3.38768,-6.119358 -1.43107,-24.630232 0,0 10.65167,5.704984 15.89248,12.808772 5.61004,7.604278 1.44586,11.532507 7.06213,12.909316 0,0 7.27895,2.209508 21.02315,-1.271037 3.52575,-0.892854 3.02039,-4.617779 8.29009,-10.353239 3.11506,-3.39037 10.6261,-5.827175 15.73809,-13.283559 3.87715,11.720136 -14.49365,25.589429 -5.63194,34.183841 9.81337,8.10768 13.97971,35.498046 5.47444,44.584211 -8.50528,9.08616 -20.01826,12.90244 -36.70331,11.18754 -17.48445,-1.79707 -27.30648,-2.79064 -41.702172,-12.07543 z"
       id="path1502"
       sodipodi:nodetypes="scscssssccsss" />
    <path
       style="fill:none;stroke:#ff5555;stroke-width:1.565;stroke-linecap:round;stroke-linejoin:miter;stroke-miterlimit:4;stroke-dasharray:none;stroke-opacity:1"
       d="M 173.68867,28.388063 C 172.6516,41.660234 169.71213,45.879059 171.987,67.300649"
       id="path9749"
       sodipodi:nodetypes="cc" />
    <path
       style="fill:none;stroke:#ff5555;stroke-width:1.565;stroke-linecap:round;stroke-linejoin:miter;stroke-miterlimit:4;stroke-dasharray:none;stroke-opacity:1"
       d="m 107.68608,26.61032 c 1.65991,10.689974 -1.3854,23.492108 -8.499982,30.005609"
       id="path9784"
       sodipodi:nodetypes="cc" />
    <path
       style="fill:none;stroke:#ff5555;stroke-width:1.5651;stroke-linecap:round;stroke-linejoin:miter;stroke-miterlimit:4;stroke-dasharray:none;stroke-opacity:1"
       d="m 188.75606,68.982321 c -39.52965,11.05613 -46.62944,12.156426 -46.62944,12.156426 l 1.98644,3.91266 45.92745,-5.574378"
       id="path11643" />
    <path
       style="fill:none;stroke:#ff5555;stroke-width:1.5651;stroke-linecap:round;stroke-linejoin:miter;stroke-miterlimit:4;stroke-dasharray:none;stroke-opacity:1"
       d="m 198.42319,85.609285 c -41.04391,-0.478258 -48.16724,-1.414052 -48.16724,-1.414052 l 0.80893,4.312829 45.64681,7.534797"
       id="path11643-3" />
    <path
       style="fill:none;stroke:#ff5555;stroke-width:1.5651;stroke-linecap:round;stroke-linejoin:miter;stroke-miterlimit:4;stroke-dasharray:none;stroke-opacity:1"
       d="M 190.36974,107.10849 C 155.44973,85.534788 149.82896,81.059911 149.82896,81.059911 l -1.53077,4.112371 26.1074,22.229718 9.11775,7.76351"
       id="path11643-3-6"
       sodipodi:nodetypes="ccccc" />
    <path
       style="fill:none;stroke:#ff5555;stroke-width:1.5651;stroke-linecap:round;stroke-linejoin:miter;stroke-miterlimit:4;stroke-dasharray:none;stroke-opacity:1"
       d="m 76.909408,63.913 c 38.121372,15.21819 44.430562,18.655011 44.430562,18.655011 l 0.79749,-4.314958 -29.554512,-17.386439 -10.32161,-6.07204"
       id="path11643-3-6-7"
       sodipodi:nodetypes="ccccc" />
  </g>
</svg>
